<svg class="main-svg" xmlns="http://www.w3.org/2000/svg" xmlns:xlink="http://www.w3.org/1999/xlink" width="700" height="500" style="" viewBox="0 0 700 500"><rect x="0" y="0" width="700" height="500" style="fill: rgb(255, 255, 255); fill-opacity: 1;"/><defs id="defs-7ddfc1"><g class="clips"><clipPath id="clip7ddfc1xyplot" class="plotclip"><rect width="641.0674249052202" height="411.28636264216976"/></clipPath><clipPath class="axesclip" id="clip7ddfc1x"><rect x="54.41813939924176" y="0" width="641.0674249052202" height="500"/></clipPath><clipPath class="axesclip" id="clip7ddfc1y"><rect x="0" y="46.59640201224843" width="700" height="411.28636264216976"/></clipPath><clipPath class="axesclip" id="clip7ddfc1xy"><rect x="54.41813939924176" y="46.59640201224843" width="641.0674249052202" height="411.28636264216976"/></clipPath></g><g class="gradients"/><g class="patterns"/></defs><g class="bglayer"/><g class="layer-below"><g class="imagelayer"/><g class="shapelayer"/></g><g class="cartesianlayer"><g class="subplot xy"><g class="layer-subplot"><g class="shapelayer"/><g class="imagelayer"/></g><g class="minor-gridlayer"><g class="x"/><g class="y"/></g><g class="gridlayer"><g class="x"><path class="xgrid crisp" transform="translate(70.09813939924176,0)" d="M0,46.59640201224843v411.28636264216976" style="stroke: rgb(0, 0, 0); stroke-opacity: 0.1; stroke-width: 0.5px;"/><path class="xgrid crisp" transform="translate(244.26813939924176,0)" d="M0,46.59640201224843v411.28636264216976" style="stroke: rgb(0, 0, 0); stroke-opacity: 0.1; stroke-width: 0.5px;"/><path class="xgrid crisp" transform="translate(418.51813939924176,0)" d="M0,46.59640201224843v411.28636264216976" style="stroke: rgb(0, 0, 0); stroke-opacity: 0.1; stroke-width: 0.5px;"/><path class="xgrid crisp" transform="translate(592.6781393992418,0)" d="M0,46.59640201224843v411.28636264216976" style="stroke: rgb(0, 0, 0); stroke-opacity: 0.1; stroke-width: 0.5px;"/></g><g class="y"><path class="ygrid crisp" transform="translate(0,377.7264020122484)" d="M54.41813939924176,0h641.0674249052202" style="stroke: rgb(0, 0, 0); stroke-opacity: 0.1; stroke-width: 0.5px;"/><path class="ygrid crisp" transform="translate(0,270.3964020122485)" d="M54.41813939924176,0h641.0674249052202" style="stroke: rgb(0, 0, 0); stroke-opacity: 0.1; stroke-width: 0.5px;"/><path class="ygrid crisp" transform="translate(0,163.06640201224843)" d="M54.41813939924176,0h641.0674249052202" style="stroke: rgb(0, 0, 0); stroke-opacity: 0.1; stroke-width: 0.5px;"/><path class="ygrid crisp" transform="translate(0,55.726402012248435)" d="M54.41813939924176,0h641.0674249052202" style="stroke: rgb(0, 0, 0); stroke-opacity: 0.1; stroke-width: 0.5px;"/></g></g><g class="zerolinelayer"/><g class="layer-between"><g class="shapelayer"/><g class="imagelayer"/></g><path class="xlines-below"/><path class="ylines-below"/><g class="overlines-below"/><g class="xaxislayer-below"/><g class="yaxislayer-below"/><g class="overaxes-below"/><g class="overplot"><g class="xy" transform="translate(54.41813939924176,46.59640201224843)" clip-path="url(#clip7ddfc1xyplot)"><g class="scatterlayer mlayer"><g class="trace scatter trace582792" style="stroke-miterlimit: 2;"><g class="fills"><g><path class="js-fill" d="M18.14,223.8L18.14,223.8L18.14,215.4L20.37,227.02L22.83,212.4L25.22,201.65L27.68,208.54L30.07,203.56L32.53,231.26L35,226.37L37.38,199.48L42.23,193.1L44.69,200.74L47.16,235.11L49.38,237.97L51.85,199.44L54.23,180.36L61.55,212.89L64.01,207.89L66.4,205.06L68.86,210.41L71.24,207.89L73.71,213.86L76.17,211.48L78.4,200.03L80.86,190.12L83.25,202.12L85.71,216.96L88.1,210.79L90.56,219.67L93.03,211.76L95.41,187.62L97.87,194.47L100.26,189.72L102.72,208.47L105.19,212.48L107.49,218.11L109.96,204L112.34,205.37L114.81,228.37L117.19,214.16L119.66,206.84L122.12,191.19L124.5,210.6L126.97,250.25L131.82,331.94L134.28,330.64L136.51,291L138.97,214.32L141.36,172.9L143.82,186.81L146.21,206.09L148.67,242.39L151.13,309.21L153.52,307.33L155.98,275.11L158.37,229.39L160.83,184.47L163.3,194.21L165.52,182.36L167.99,197.25L170.37,218.7L172.84,218.92L175.22,218.78L177.69,212.75L182.53,202.1L185,215.19L187.38,239.44L189.85,240.6L192.31,221.61L194.54,217.21L197,205.63L199.39,208.6L204.24,224.05L206.7,248.37L209.16,248.42L211.55,226.6L214.01,219.44L216.4,225.53L218.86,210.02L221.33,223.92L223.63,218.62L226.1,238.39L228.48,249.49L230.95,245.52L235.79,220.35L238.26,226.87L240.64,236.93L243.11,252.15L245.49,231.92L247.96,226.8L250.42,241.34L252.65,242.08L255.11,233.31L257.5,227.74L259.96,227.5L262.35,219.81L264.81,220.17L267.27,215.47L269.66,218.28L272.12,235.77L274.51,259.29L276.97,230.64L279.44,213.59L281.66,211.09L284.13,216.89L286.51,226.04L288.98,231.01L291.36,231.49L293.82,208.29L296.29,211.87L298.67,205.78L301.14,222.5L303.52,230.74L305.99,204.76L308.45,195.96L310.68,217.46L313.14,220.22L315.53,221.44L317.99,215.8L320.37,200.06L322.84,206.89L325.3,219.04L327.69,215.78L330.15,222.37L332.54,222L335,218.44L337.47,209.67L339.77,206.92L342.24,207.72L344.62,234.22L349.47,217.92L351.93,218.14L354.4,210.8L356.78,210.6L359.25,208.15L361.63,215.21L364.1,227.1L366.56,225.76L368.79,219.62L371.25,220.88L373.63,211.33L376.1,211.41L380.95,220.46L383.41,223.14L385.8,220.55L388.26,213.3L390.65,211.26L393.11,210.22L395.57,225.08L397.8,225.22L400.26,226.15L402.65,209.1L405.11,200.6L407.5,217.65L412.43,247.84L414.81,239.97L419.66,160.99L422.13,136.55L424.59,161.56L426.82,205.11L429.28,246.85L431.66,259.44L434.13,264.25L436.51,236.23L438.98,236.99L441.44,225.51L443.83,219.65L446.29,223.56L448.68,232.19L451.14,210.93L453.6,230.05L455.91,311.9L458.37,397.16L460.76,399.65L465.61,34.35L468.07,212.76L470.54,277.45L472.92,296.81L477.77,129.26L480.23,90.47L484.92,197.9L487.39,225.04L489.77,230.83L492.24,208.62L494.62,183.57L497.09,188.81L499.55,196.44L501.94,210.11L504.4,228.24L506.79,228.27L509.25,203.91L511.71,198.87L513.94,225.42L516.4,215.37L518.79,225.24L521.25,224.87L523.64,218.33L526.1,223.13L528.57,218.97L530.95,220.55L533.42,227.88L535.8,245.35L540.73,210.75L542.95,204.96L545.42,238.51L547.8,226.05L550.27,219.81L552.65,220.13L555.12,219.91L557.58,229.68L559.97,216.02L562.43,222.5L567.28,213.73L569.74,210.07L572.05,217.44L574.51,210.71L576.9,223.37L579.36,225.04L581.75,211.49L584.21,210.27L586.68,205.3L589.06,214.99L591.52,213.9L593.91,217.8L596.37,216.07L598.84,223.97L603.53,250.59L605.91,233.36L608.38,217.7L610.76,215.28L613.23,222.8L615.69,233.61L618.07,238L620.54,235.16L622.92,231.65L622.92,191.44L620.54,194.73L618.07,194.38L615.69,189.51L613.23,181.2L610.76,175.65L608.38,179.75L603.53,210.24L601.06,208.3L598.84,209.03L596.37,204.24L593.91,205.92L591.52,200.72L589.06,206.23L586.68,194.15L584.21,196.81L581.75,204.07L579.36,212.17L576.9,210.81L574.51,200.89L572.05,203.48L569.74,199.41L567.28,203.96L564.81,203.09L562.43,213.81L559.97,209.72L557.58,219.96L555.12,209.73L552.65,211.56L550.27,208.71L547.8,207.5L545.42,228.32L542.95,194.46L540.73,194.01L538.26,218.23L535.8,225.51L533.42,199.7L530.95,203.2L528.57,185.15L526.1,199.31L523.64,205.49L521.25,206.19L518.79,207.75L516.4,203.57L513.94,197.31L511.71,183.72L509.25,197.37L506.79,210.69L504.4,213.57L501.94,204.97L499.55,183.82L497.09,175.77L494.62,177.71L489.77,214.02L487.39,214.05L484.92,178.95L482.7,123.98L480.23,80.61L477.77,108.29L475.39,177.5L472.92,281.65L470.54,250.6L468.07,178.8L465.61,11.64L463.22,182.9L460.76,365.25L458.37,378.88L455.91,272.07L453.6,206.28L451.14,194.38L448.68,210.03L446.29,213.89L443.83,212.99L441.44,213.66L438.98,224.88L436.51,227.2L434.13,252.76L431.66,250.37L429.28,239.93L424.59,149.86L422.13,130.07L419.66,147.34L417.28,187.8L414.81,232.03L412.43,238.6L409.96,219.75L407.5,209.2L405.11,187.23L402.65,198.78L400.26,217.59L397.8,215.94L395.57,212.81L393.11,200.31L390.65,193.55L388.26,203.69L385.8,214.78L383.41,214.7L380.95,210.8L378.48,209.59L376.1,202.46L373.63,198.99L371.25,210.86L368.79,204.15L366.56,206.28L364.1,211.67L361.63,200.07L359.25,197.62L356.78,205.11L354.4,199.49L351.93,206.88L349.47,209.1L347.08,212.76L344.62,221.56L342.24,200.84L339.77,194.65L337.47,193.97L335,207.65L332.54,206.69L330.15,212.05L325.3,206.64L322.84,196.51L320.37,191.89L317.99,201.93L315.53,210.64L313.14,212.54L310.68,204.05L308.45,181.22L305.99,195.92L303.52,215.52L301.14,209.14L298.67,196.56L293.82,194.58L291.36,220.36L286.51,213.68L284.13,202.93L281.66,198.63L279.44,196.97L274.51,244.96L272.12,222.96L269.66,209.87L267.27,202.41L262.35,212.5L259.96,213.34L257.5,214.47L255.11,221.98L250.42,227.09L247.96,216.78L245.49,215.39L243.11,237.54L240.64,229.87L238.26,213.12L235.79,205.72L233.33,226.39L230.95,227.65L228.48,233.96L226.1,229.48L223.63,200.93L221.33,204.6L218.86,199.88L216.4,208.08L214.01,207.98L209.16,229.34L206.7,234.5L204.24,213.74L201.85,204.42L199.39,194.99L197,195.6L194.54,204.72L192.31,206.61L189.85,229.45L187.38,222.9L185,199.84L182.53,195.43L180.15,192.62L177.69,198.43L175.22,212.22L172.84,206.5L170.37,204.79L167.99,189.24L165.52,168.65L163.3,174.45L160.83,176.32L158.37,212.43L153.52,297.94L151.13,287.55L148.67,222.23L146.21,192.64L143.82,168.72L141.36,158.54L138.97,199.91L136.51,274.61L134.28,307.83L131.82,318.6L126.97,231.53L124.5,198.85L122.12,172.28L119.66,188.09L117.19,201.75L114.81,206.77L112.34,188.78L109.96,193.42L107.49,197.57L105.19,187.4L102.72,197.31L100.26,160.26L95.41,168.7L93.03,182.41L88.1,196.82L85.71,188.91L83.25,175.51L80.86,177.17L78.4,172.8L76.17,184.17L73.71,198.44L71.24,180.23L68.86,179.39L66.4,188.2L64.01,171.42L61.55,181.17L59.08,185.09L56.7,157.06L54.23,147.76L51.85,181.59L49.38,206.37L47.16,197.48L42.23,161.56L39.84,163.71L37.38,184.42L35,192.5L32.53,200.21L30.07,189.88L27.68,177.44L25.22,172.82L22.83,192.56L20.37,191.68L18.14,176.36" style="fill: rgb(0, 154, 250); fill-opacity: 0.1; stroke-width: 0;"/></g></g><g class="errorbars"/><g class="lines"><path class="js-line" d="M18.14,215.4L20.37,227.02L22.83,212.4L25.22,201.65L27.68,208.54L30.07,203.56L32.53,231.26L35,226.37L37.38,199.48L42.23,193.1L44.69,200.74L47.16,235.11L49.38,237.97L51.85,199.44L54.23,180.36L61.55,212.89L64.01,207.89L66.4,205.06L68.86,210.41L71.24,207.89L73.71,213.86L76.17,211.48L78.4,200.03L80.86,190.12L83.25,202.12L85.71,216.96L88.1,210.79L90.56,219.67L93.03,211.76L95.41,187.62L97.87,194.47L100.26,189.72L102.72,208.47L105.19,212.48L107.49,218.11L109.96,204L112.34,205.37L114.81,228.37L117.19,214.16L119.66,206.84L122.12,191.19L124.5,210.6L126.97,250.25L131.82,331.94L134.28,330.64L136.51,291L138.97,214.32L141.36,172.9L143.82,186.81L146.21,206.09L148.67,242.39L151.13,309.21L153.52,307.33L155.98,275.11L158.37,229.39L160.83,184.47L163.3,194.21L165.52,182.36L167.99,197.25L170.37,218.7L172.84,218.92L175.22,218.78L177.69,212.75L182.53,202.1L185,215.19L187.38,239.44L189.85,240.6L192.31,221.61L194.54,217.21L197,205.63L199.39,208.6L204.24,224.05L206.7,248.37L209.16,248.42L211.55,226.6L214.01,219.44L216.4,225.53L218.86,210.02L221.33,223.92L223.63,218.62L226.1,238.39L228.48,249.49L230.95,245.52L235.79,220.35L238.26,226.87L240.64,236.93L243.11,252.15L245.49,231.92L247.96,226.8L250.42,241.34L252.65,242.08L255.11,233.31L257.5,227.74L259.96,227.5L262.35,219.81L264.81,220.17L267.27,215.47L269.66,218.28L272.12,235.77L274.51,259.29L276.97,230.64L279.44,213.59L281.66,211.09L284.13,216.89L286.51,226.04L288.98,231.01L291.36,231.49L293.82,208.29L296.29,211.87L298.67,205.78L301.14,222.5L303.52,230.74L305.99,204.76L308.45,195.96L310.68,217.46L313.14,220.22L315.53,221.44L317.99,215.8L320.37,200.06L322.84,206.89L325.3,219.04L327.69,215.78L330.15,222.37L332.54,222L335,218.44L337.47,209.67L339.77,206.92L342.24,207.72L344.62,234.22L349.47,217.92L351.93,218.14L354.4,210.8L356.78,210.6L359.25,208.15L361.63,215.21L364.1,227.1L366.56,225.76L368.79,219.62L371.25,220.88L373.63,211.33L376.1,211.41L380.95,220.46L383.41,223.14L385.8,220.55L388.26,213.3L390.65,211.26L393.11,210.22L395.57,225.08L397.8,225.22L400.26,226.15L402.65,209.1L405.11,200.6L407.5,217.65L412.43,247.84L414.81,239.97L419.66,160.99L422.13,136.55L424.59,161.56L426.82,205.11L429.28,246.85L431.66,259.44L434.13,264.25L436.51,236.23L438.98,236.99L441.44,225.51L443.83,219.65L446.29,223.56L448.68,232.19L451.14,210.93L453.6,230.05L455.91,311.9L458.37,397.16L460.76,399.65L465.61,34.35L468.07,212.76L470.54,277.45L472.92,296.81L477.77,129.26L480.23,90.47L484.92,197.9L487.39,225.04L489.77,230.83L492.24,208.62L494.62,183.57L497.09,188.81L499.55,196.44L501.94,210.11L504.4,228.24L506.79,228.27L509.25,203.91L511.71,198.87L513.94,225.42L516.4,215.37L518.79,225.24L521.25,224.87L523.64,218.33L526.1,223.13L528.57,218.97L530.95,220.55L533.42,227.88L535.8,245.35L540.73,210.75L542.95,204.96L545.42,238.51L547.8,226.05L550.27,219.81L552.65,220.13L555.12,219.91L557.58,229.68L559.97,216.02L562.43,222.5L567.28,213.73L569.74,210.07L572.05,217.44L574.51,210.71L576.9,223.37L579.36,225.04L581.75,211.49L584.21,210.27L586.68,205.3L589.06,214.99L591.52,213.9L593.91,217.8L596.37,216.07L598.84,223.97L603.53,250.59L605.91,233.36L608.38,217.7L610.76,215.28L613.23,222.8L615.69,233.61L618.07,238L620.54,235.16L622.92,231.65L622.92,191.44L620.54,194.73L618.07,194.38L615.69,189.51L613.23,181.2L610.76,175.65L608.38,179.75L603.53,210.24L601.06,208.3L598.84,209.03L596.37,204.24L593.91,205.92L591.52,200.72L589.06,206.23L586.68,194.15L584.21,196.81L581.75,204.07L579.36,212.17L576.9,210.81L574.51,200.89L572.05,203.48L569.74,199.41L567.28,203.96L564.81,203.09L562.43,213.81L559.97,209.72L557.58,219.96L555.12,209.73L552.65,211.56L550.27,208.71L547.8,207.5L545.42,228.32L542.95,194.46L540.73,194.01L538.26,218.23L535.8,225.51L533.42,199.7L530.95,203.2L528.57,185.15L526.1,199.31L523.64,205.49L521.25,206.19L518.79,207.75L516.4,203.57L513.94,197.31L511.71,183.72L509.25,197.37L506.79,210.69L504.4,213.57L501.94,204.97L499.55,183.82L497.09,175.77L494.62,177.71L489.77,214.02L487.39,214.05L484.92,178.95L482.7,123.98L480.23,80.61L477.77,108.29L475.39,177.5L472.92,281.65L470.54,250.6L468.07,178.8L465.61,11.64L463.22,182.9L460.76,365.25L458.37,378.88L455.91,272.07L453.6,206.28L451.14,194.38L448.68,210.03L446.29,213.89L443.83,212.99L441.44,213.66L438.98,224.88L436.51,227.2L434.13,252.76L431.66,250.37L429.28,239.93L424.59,149.86L422.13,130.07L419.66,147.34L417.28,187.8L414.81,232.03L412.43,238.6L409.96,219.75L407.5,209.2L405.11,187.23L402.65,198.78L400.26,217.59L397.8,215.94L395.57,212.81L393.11,200.31L390.65,193.55L388.26,203.69L385.8,214.78L383.41,214.7L380.95,210.8L378.48,209.59L376.1,202.46L373.63,198.99L371.25,210.86L368.79,204.15L366.56,206.28L364.1,211.67L361.63,200.07L359.25,197.62L356.78,205.11L354.4,199.49L351.93,206.88L349.47,209.1L347.08,212.76L344.62,221.56L342.24,200.84L339.77,194.65L337.47,193.97L335,207.65L332.54,206.69L330.15,212.05L325.3,206.64L322.84,196.51L320.37,191.89L317.99,201.93L315.53,210.64L313.14,212.54L310.68,204.05L308.45,181.22L305.99,195.92L303.52,215.52L301.14,209.14L298.67,196.56L293.82,194.58L291.36,220.36L286.51,213.68L284.13,202.93L281.66,198.63L279.44,196.97L274.51,244.96L272.12,222.96L269.66,209.87L267.27,202.41L262.35,212.5L259.96,213.34L257.5,214.47L255.11,221.98L250.42,227.09L247.96,216.78L245.49,215.39L243.11,237.54L240.64,229.87L238.26,213.12L235.79,205.72L233.33,226.39L230.95,227.65L228.48,233.96L226.1,229.48L223.63,200.93L221.33,204.6L218.86,199.88L216.4,208.08L214.01,207.98L209.16,229.34L206.7,234.5L204.24,213.74L201.85,204.42L199.39,194.99L197,195.6L194.54,204.72L192.31,206.61L189.85,229.45L187.38,222.9L185,199.84L182.53,195.43L180.15,192.62L177.69,198.43L175.22,212.22L172.84,206.5L170.37,204.79L167.99,189.24L165.52,168.65L163.3,174.45L160.83,176.32L158.37,212.43L153.52,297.94L151.13,287.55L148.67,222.23L146.21,192.64L143.82,168.72L141.36,158.54L138.97,199.91L136.51,274.61L134.28,307.83L131.82,318.6L126.97,231.53L124.5,198.85L122.12,172.28L119.66,188.09L117.19,201.75L114.81,206.77L112.34,188.78L109.96,193.42L107.49,197.57L105.19,187.4L102.72,197.31L100.26,160.26L95.41,168.7L93.03,182.41L88.1,196.82L85.71,188.91L83.25,175.51L80.86,177.17L78.4,172.8L76.17,184.17L73.71,198.44L71.24,180.23L68.86,179.39L66.4,188.2L64.01,171.42L61.55,181.17L59.08,185.09L56.7,157.06L54.23,147.76L51.85,181.59L49.38,206.37L47.16,197.48L42.23,161.56L39.84,163.71L37.38,184.42L35,192.5L32.53,200.21L30.07,189.88L27.68,177.44L25.22,172.82L22.83,192.56L20.37,191.68L18.14,176.36" style="vector-effect: none; fill: none; stroke: rgb(0, 154, 250); stroke-opacity: 1; stroke-width: 0px; opacity: 1;"/></g><g class="points"/><g class="text"/></g><g class="trace scatter trace7b86bc" style="stroke-miterlimit: 2; opacity: 1;"><g class="fills"/><g class="errorbars"/><g class="lines"><path class="js-line" d="M18.14,195.16L20.37,209.09L22.83,202.57L25.22,187.2L27.68,193.49L30.07,197.25L32.53,215.14L35,208.59L37.38,191.66L39.84,181.1L42.23,177.77L44.69,191.28L47.16,215.76L49.38,222.86L51.85,190.11L54.23,164.44L56.7,173.99L59.08,192.24L61.55,196.36L64.01,190.82L66.4,196.47L68.86,194.84L71.24,194.34L73.71,206.32L76.17,198.06L78.4,185.93L80.86,183.72L83.25,188.45L85.71,202.37L90.56,204.85L93.03,196.99L95.41,178.02L97.87,179.12L100.26,176.09L102.72,202.82L105.19,200.16L107.49,208.26L109.96,198.97L112.34,198.23L114.81,217.25L117.19,208.39L119.66,198.14L122.12,180.64L124.5,204.44L126.97,241.75L131.82,324.91L134.28,319.41L136.51,283.97L138.97,206.66L141.36,165.88L143.82,177.59L146.21,198.51L148.67,232.42L151.13,298.79L153.52,302.59L155.98,266.9L158.37,220.95L160.83,180.48L163.3,182.87L165.52,175.09L167.99,193.41L170.37,211.75L172.84,213.06L175.22,215.41L177.69,205.04L180.15,199.72L182.53,198.62L185,207.17L187.38,230.58L189.85,234.15L192.31,214.42L194.54,210.6L197,200.94L199.39,202.54L201.85,210.26L204.24,219.31L206.7,240.75L209.16,239.08L211.55,223.15L214.01,213.62L216.4,216.91L218.86,205.24L221.33,214.99L223.63,209.82L226.1,233.71L228.48,241.71L230.95,237.82L233.33,230.6L235.79,211.54L238.26,220.38L240.64,233.81L243.11,244.13L245.49,223.94L247.96,221.05L250.42,233.33L252.65,233.19L255.11,227.1L257.5,221.48L259.96,220L262.35,215.93L264.81,213.62L267.27,209.54L269.66,214.58L272.12,229.55L274.51,252.07L276.97,224.95L279.44,206.23L281.66,205.22L284.13,209.29L286.51,220.71L288.98,224.83L291.36,224.82L293.82,202.03L296.29,203.92L298.67,201.43L301.14,215.82L303.52,222.31L305.99,200.82L308.45,188.91L310.68,210.73L313.14,216.08L315.53,216.54L317.99,209.16L320.37,196.12L322.84,201.49L325.3,212.55L327.69,212.89L330.15,217.61L332.54,214.24L335,212.05L337.47,201.85L339.77,201.12L342.24,204.28L344.62,227.75L347.08,219.79L349.47,213.49L351.93,212.15L354.4,205.8L356.78,207.97L359.25,202.96L361.63,207.34L364.1,218.59L366.56,215.68L368.79,211.51L371.25,216.3L373.63,204.61L376.1,206.82L378.48,212.13L380.95,215.54L383.41,218.59L385.8,217.95L390.65,201.98L393.11,206.64L395.57,219.22L397.8,220.49L400.26,222.81L402.65,203.57L405.11,194.24L407.5,213.86L409.96,224.61L412.43,243.19L414.81,235.93L417.28,192.94L419.66,154.94L422.13,132.79L424.59,155.55L426.82,200.34L429.28,243.25L431.66,254.96L434.13,258.35L436.51,230.87L438.98,230.94L441.44,220.25L443.83,216.32L446.29,218.65L448.68,219.29L451.14,203.66L453.6,217.73L455.91,287.23L458.37,387.4L460.76,383.92L465.61,23.24L468.07,197.17L470.54,264.36L472.92,289.56L477.77,118.23L480.23,85.96L484.92,187.7L487.39,219.77L489.77,221.12L492.24,202.17L494.62,180.52L497.09,182.73L499.55,189.37L501.94,207.63L504.4,220.8L506.79,218.89L509.25,200.26L511.71,191.78L513.94,210.07L516.4,209.37L518.79,216.24L521.25,216.46L526.1,210.03L528.57,200.88L530.95,211.83L533.42,213.86L535.8,235.95L538.26,223.15L540.73,202.76L542.95,200.07L545.42,233.05L547.8,217.52L550.27,213.98L552.65,216.07L555.12,214.32L557.58,224.83L559.97,213.11L562.43,217.74L564.81,210.03L567.28,209.28L569.74,204.72L572.05,209.53L574.51,205.4L576.9,216.64L579.36,218.05L581.75,208.14L586.68,199.66L589.06,210.82L591.52,207.67L593.91,212.11L596.37,209.33L598.84,216.62L603.53,231.25L605.91,215.47L608.38,198.96L610.76,195.06L615.69,212.07L618.07,216.8L620.54,215.31L622.92,211.73" style="vector-effect: none; fill: none; stroke: rgb(0, 154, 250); stroke-opacity: 1; stroke-width: 0px; opacity: 1;"/></g><g class="points"/><g class="text"/></g><g class="trace scatter tracefdc250" style="stroke-miterlimit: 2;"><g class="fills"><g><path class="js-fill" d="M18.14,223.8L18.14,223.8L18.14,207.28L20.37,220.17L22.83,208.39L25.22,195.69L27.68,202.74L30.07,200.95L32.53,224.94L35,219.06L37.38,196.43L39.84,190.48L42.23,187.26L44.69,197.09L47.16,226.81L49.38,232.53L51.85,195.91L54.23,174.66L56.7,184.18L61.55,206.56L64.01,200.75L66.4,201.54L68.86,204.68L71.24,202.56L73.71,210.92L76.17,206.53L78.4,194.06L80.86,187.44L83.25,196.55L85.71,210.43L88.1,208.02L90.56,214.32L93.03,206L95.41,183.51L97.87,188.7L100.26,184.94L102.72,206.22L105.19,207.88L107.49,214.31L109.96,202.31L112.34,202.8L114.81,223.84L117.19,211.88L119.66,203.56L122.12,185.89L124.5,208.15L126.97,246.92L131.82,329.1L134.28,326.35L136.51,288.45L138.97,211.42L141.36,170.16L143.82,183.18L146.21,202.76L148.67,238.78L151.13,305.21L153.52,305.45L155.98,272.53L158.37,225.74L160.83,182.85L163.3,189.95L165.52,179.24L167.99,195.86L170.37,215.95L172.84,216.74L175.22,217.43L177.69,209.54L180.15,203.47L182.53,200.64L185,211.75L187.38,235.46L189.85,237.82L192.31,218.69L194.54,214.42L197,203.94L199.39,206.64L201.85,214.06L204.24,222.24L206.7,245.08L209.16,245.23L211.55,225.17L214.01,217.26L216.4,222.1L218.86,208.05L221.33,220.17L223.63,215.34L226.1,236.43L228.48,246.22L230.95,242.72L233.33,232.75L235.79,216.77L238.26,224.42L240.64,235.75L243.11,248.56L245.49,228.73L247.96,224.48L250.42,238.24L252.65,238.47L255.11,231.6L257.5,225.33L259.96,224.46L262.35,218.2L264.81,217.6L267.27,213.34L269.66,216.73L272.12,233.08L274.51,256.29L276.97,228L279.44,210.72L281.66,209.05L284.13,213.75L286.51,224.1L288.98,228.46L291.36,228.32L293.82,205.85L296.29,208.4L298.67,204.18L301.14,219.91L303.52,227.27L305.99,203.08L308.45,193.38L310.68,214.75L313.14,218.63L315.53,219.65L317.99,213.44L320.37,198.64L322.84,204.77L325.3,216.34L327.69,214.64L330.15,220.58L332.54,218.7L335,215.33L337.47,207.11L339.77,204.65L342.24,206.39L344.62,231.79L347.08,223.16L349.47,215.7L351.93,215.67L354.4,208.71L356.78,209.68L359.25,206.06L361.63,211.78L364.1,223.46L366.56,221.63L368.79,216.18L371.25,219.29L373.63,208.65L376.1,209.38L380.95,218.7L383.41,221.15L385.8,219.64L388.26,211.14L390.65,207.57L393.11,208.77L395.57,223.11L397.8,223.54L400.26,224.85L402.65,206.96L405.11,198.16L407.5,216.22L409.96,228.11L412.43,246.18L414.81,238.53L417.28,195.99L419.66,158.85L422.13,134.68L424.59,159.11L426.82,203.55L429.28,245.44L431.66,257.88L434.13,261.78L436.51,233.69L438.98,234.53L441.44,223.67L443.83,218.3L446.29,221.69L448.68,227.34L451.14,207.6L453.6,225.31L455.91,304.22L458.37,392.38L460.76,393.64L465.61,30.13L468.07,206.58L470.54,272.24L472.92,294.22L477.77,124.94L480.23,89.05L484.92,194.26L487.39,222.79L489.77,227.1L492.24,206.19L494.62,182.42L497.09,186.39L499.55,193.6L501.94,209.19L504.4,225.73L506.79,224.99L509.25,202.54L511.71,196.17L513.94,219.74L516.4,213.57L518.79,221.92L521.25,221.5L523.64,216.19L526.1,216.33L528.57,211.71L530.95,216.85L533.42,222.94L535.8,241.88L540.73,207.54L542.95,203.18L545.42,236.27L547.8,222.41L550.27,217.66L552.65,218.75L555.12,217.37L557.58,227.86L559.97,214.9L562.43,220.52L564.81,214.66L567.28,212.08L569.74,207.92L572.05,214.44L574.51,208.71L576.9,220.53L579.36,222.16L581.75,210.32L584.21,207.55L586.68,203.35L589.06,213.32L591.52,211.2L593.91,215.67L596.37,213.59L598.84,221.16L601.06,232.51L603.53,243.59L605.91,226.09L608.38,210.45L610.76,207.13L613.23,214.7L615.69,225.08L618.07,229.01L620.54,227.59L622.92,224.62L622.92,198.54L620.54,202.1L618.07,203.38L615.69,199.25L613.23,190.9L610.76,182.7L608.38,188.13L603.53,218.39L601.06,214.62L598.84,211.87L596.37,206.1L593.91,208.43L591.52,203.56L589.06,208.11L586.68,196.02L584.21,199.18L581.75,205.7L579.36,214.47L576.9,212.93L574.51,202.6L572.05,205.72L569.74,201.18L567.28,206.4L564.81,205.88L562.43,215.19L559.97,211.25L557.58,221.81L555.12,211.57L552.65,213.1L550.27,210.74L547.8,211.89L545.42,229.86L542.95,196.98L540.73,197.35L538.26,220.05L535.8,229.78L533.42,205L530.95,206.55L528.57,190.52L526.1,203.34L523.64,209.17L521.25,210.71L518.79,210.91L513.94,200.65L511.71,187.26L509.25,198.56L506.79,213.52L504.4,216.47L501.94,206.05L499.55,185.9L497.09,178.51L494.62,178.73L492.24,198.14L489.77,216.27L487.39,216.62L484.92,182L482.7,127.26L480.23,82.3L477.77,112.09L475.39,181.88L472.92,284.78L470.54,256.09L468.07,187.34L465.61,15.46L463.22,189.99L460.76,371.34L458.37,381.99L453.6,210.52L451.14,198.5L448.68,213.62L446.29,215.56L443.83,214.26L441.44,216.45L438.98,227.47L436.51,228.32L434.13,255L431.66,252.17L429.28,241.13L426.82,196.87L424.59,152.25L422.13,131.16L419.66,150.65L417.28,189.84L414.81,233.68L412.43,240.33L409.96,221.51L407.5,211.36L405.11,189.88L402.65,200.76L400.26,220.69L397.8,217.53L395.57,215.54L393.11,203.02L390.65,197.28L388.26,205.59L385.8,216.12L383.41,216.3L380.95,212.66L378.48,210.56L376.1,203.97L373.63,201.09L371.25,212.8L368.79,207.08L364.1,214.4L361.63,202.91L359.25,199.79L356.78,206.48L354.4,202.48L351.93,208.89L349.47,210.9L347.08,216.14L344.62,224.12L342.24,202.18L339.77,197.57L337.47,197.27L335,209.12L332.54,209.44L330.15,214.33L327.69,210.84L325.3,208.98L322.84,198.77L320.37,193.27L317.99,204.46L315.53,212.8L313.14,213.98L310.68,206.73L308.45,184.28L305.99,198.26L303.52,218.29L301.14,211.63L298.67,198.65L296.29,199.15L293.82,197.63L291.36,221.93L288.98,220.45L286.51,216.47L284.13,205.2L281.66,201.21L279.44,200.53L274.51,247.36L272.12,225.92L269.66,212.23L267.27,205.38L262.35,213.77L259.96,215.82L257.5,217.22L255.11,223.86L252.65,228.28L250.42,229.52L247.96,218.53L245.49,218.92L243.11,240.18L240.64,231.58L238.26,216.11L235.79,207.69L233.33,227.98L230.95,231.81L228.48,236.99L226.1,231.02L223.63,204.98L221.33,209.63L218.86,202.31L216.4,211.75L214.01,209.88L211.55,220.98L209.16,232.2L206.7,236.89L204.24,215.95L201.85,206.56L199.39,197.87L197,198.07L194.54,206.88L192.31,209.77L189.85,231.11L187.38,225.93L185,203.15L182.53,196.53L180.15,195.93L177.69,201.06L175.22,213.58L172.84,209.35L170.37,207.86L167.99,191.05L165.52,170.91L163.3,177.61L160.83,177.93L158.37,215.73L153.52,300.01L151.13,290.63L148.67,225.97L146.21,194.71L143.82,171.84L141.36,161.31L138.97,202.59L136.51,278.1L134.28,312.07L131.82,320.62L126.97,236.18L124.5,201.11L122.12,175.11L119.66,192.11L117.19,204.31L114.81,211.12L112.34,192.67L109.96,195.46L107.49,201.91L105.19,192.26L102.72,199.48L100.26,166.62L95.41,172.45L93.03,188.51L90.56,195.53L88.1,199.78L85.71,193.98L83.25,180.91L80.86,179.9L78.4,177.51L73.71,201.64L71.24,186.52L68.86,185.15L66.4,191.31L64.01,179.94L61.55,186.94L59.08,187.73L56.7,164.06L54.23,154.09L51.85,184.89L49.38,213.13L47.16,204.93L42.23,167.28L39.84,171.35L35,198.23L32.53,206.41L27.68,183.01L25.22,178.58L22.83,196.9L20.37,198.07L18.14,183.11" style="fill: rgb(0, 154, 250); fill-opacity: 0.05; stroke-width: 0;"/></g></g><g class="errorbars"/><g class="lines"><path class="js-line" d="M18.14,207.28L20.37,220.17L22.83,208.39L25.22,195.69L27.68,202.74L30.07,200.95L32.53,224.94L35,219.06L37.38,196.43L39.84,190.48L42.23,187.26L44.69,197.09L47.16,226.81L49.38,232.53L51.85,195.91L54.23,174.66L56.7,184.18L61.55,206.56L64.01,200.75L66.4,201.54L68.86,204.68L71.24,202.56L73.71,210.92L76.17,206.53L78.4,194.06L80.86,187.44L83.25,196.55L85.71,210.43L88.1,208.02L90.56,214.32L93.03,206L95.41,183.51L97.87,188.7L100.26,184.94L102.72,206.22L105.19,207.88L107.49,214.31L109.96,202.31L112.34,202.8L114.81,223.84L117.19,211.88L119.66,203.56L122.12,185.89L124.5,208.15L126.97,246.92L131.82,329.1L134.28,326.35L136.51,288.45L138.97,211.42L141.36,170.16L143.82,183.18L146.21,202.76L148.67,238.78L151.13,305.21L153.52,305.45L155.98,272.53L158.37,225.74L160.83,182.85L163.3,189.95L165.52,179.24L167.99,195.86L170.37,215.95L172.84,216.74L175.22,217.43L177.69,209.54L180.15,203.47L182.53,200.64L185,211.75L187.38,235.46L189.85,237.82L192.31,218.69L194.54,214.42L197,203.94L199.39,206.64L201.85,214.06L204.24,222.24L206.7,245.08L209.16,245.23L211.55,225.17L214.01,217.26L216.4,222.1L218.86,208.05L221.33,220.17L223.63,215.34L226.1,236.43L228.48,246.22L230.95,242.72L233.33,232.75L235.79,216.77L238.26,224.42L240.64,235.75L243.11,248.56L245.49,228.73L247.96,224.48L250.42,238.24L252.65,238.47L255.11,231.6L257.5,225.33L259.96,224.46L262.35,218.2L264.81,217.6L267.27,213.34L269.66,216.73L272.12,233.08L274.51,256.29L276.97,228L279.44,210.72L281.66,209.05L284.13,213.75L286.51,224.1L288.98,228.46L291.36,228.32L293.82,205.85L296.29,208.4L298.67,204.18L301.14,219.91L303.52,227.27L305.99,203.08L308.45,193.38L310.68,214.75L313.14,218.63L315.53,219.65L317.99,213.44L320.37,198.64L322.84,204.77L325.3,216.34L327.69,214.64L330.15,220.58L332.54,218.7L335,215.33L337.47,207.11L339.77,204.65L342.24,206.39L344.62,231.79L347.08,223.16L349.47,215.7L351.93,215.67L354.4,208.71L356.78,209.68L359.25,206.06L361.63,211.78L364.1,223.46L366.56,221.63L368.79,216.18L371.25,219.29L373.63,208.65L376.1,209.38L380.95,218.7L383.41,221.15L385.8,219.64L388.26,211.14L390.65,207.57L393.11,208.77L395.57,223.11L397.8,223.54L400.26,224.85L402.65,206.96L405.11,198.16L407.5,216.22L409.96,228.11L412.43,246.18L414.81,238.53L417.28,195.99L419.66,158.85L422.13,134.68L424.59,159.11L426.82,203.55L429.28,245.44L431.66,257.88L434.13,261.78L436.51,233.69L438.98,234.53L441.44,223.67L443.83,218.3L446.29,221.69L448.68,227.34L451.14,207.6L453.6,225.31L455.91,304.22L458.37,392.38L460.76,393.64L465.61,30.13L468.07,206.58L470.54,272.24L472.92,294.22L477.77,124.94L480.23,89.05L484.92,194.26L487.39,222.79L489.77,227.1L492.24,206.19L494.62,182.42L497.09,186.39L499.55,193.6L501.94,209.19L504.4,225.73L506.79,224.99L509.25,202.54L511.71,196.17L513.94,219.74L516.4,213.57L518.79,221.92L521.25,221.5L523.64,216.19L526.1,216.33L528.57,211.71L530.95,216.85L533.42,222.94L535.8,241.88L540.73,207.54L542.95,203.18L545.42,236.27L547.8,222.41L550.27,217.66L552.65,218.75L555.12,217.37L557.58,227.86L559.97,214.9L562.43,220.52L564.81,214.66L567.28,212.08L569.74,207.92L572.05,214.44L574.51,208.71L576.9,220.53L579.36,222.16L581.75,210.32L584.21,207.55L586.68,203.35L589.06,213.32L591.52,211.2L593.91,215.67L596.37,213.59L598.84,221.16L601.06,232.51L603.53,243.59L605.91,226.09L608.38,210.45L610.76,207.13L613.23,214.7L615.69,225.08L618.07,229.01L620.54,227.59L622.92,224.62L622.92,198.54L620.54,202.1L618.07,203.38L615.69,199.25L613.23,190.9L610.76,182.7L608.38,188.13L603.53,218.39L601.06,214.62L598.84,211.87L596.37,206.1L593.91,208.43L591.52,203.56L589.06,208.11L586.68,196.02L584.21,199.18L581.75,205.7L579.36,214.47L576.9,212.93L574.51,202.6L572.05,205.72L569.74,201.18L567.28,206.4L564.81,205.88L562.43,215.19L559.97,211.25L557.58,221.81L555.12,211.57L552.65,213.1L550.27,210.74L547.8,211.89L545.42,229.86L542.95,196.98L540.73,197.35L538.26,220.05L535.8,229.78L533.42,205L530.95,206.55L528.57,190.52L526.1,203.34L523.64,209.17L521.25,210.71L518.79,210.91L513.94,200.65L511.71,187.26L509.25,198.56L506.79,213.52L504.4,216.47L501.94,206.05L499.55,185.9L497.09,178.51L494.62,178.73L492.24,198.14L489.77,216.27L487.39,216.62L484.92,182L482.7,127.26L480.23,82.3L477.77,112.09L475.39,181.88L472.92,284.78L470.54,256.09L468.07,187.34L465.61,15.46L463.22,189.99L460.76,371.34L458.37,381.99L453.6,210.52L451.14,198.5L448.68,213.62L446.29,215.56L443.83,214.26L441.44,216.45L438.98,227.47L436.51,228.32L434.13,255L431.66,252.17L429.28,241.13L426.82,196.87L424.59,152.25L422.13,131.16L419.66,150.65L417.28,189.84L414.81,233.68L412.43,240.33L409.96,221.51L407.5,211.36L405.11,189.88L402.65,200.76L400.26,220.69L397.8,217.53L395.57,215.54L393.11,203.02L390.65,197.28L388.26,205.59L385.8,216.12L383.41,216.3L380.95,212.66L378.48,210.56L376.1,203.97L373.63,201.09L371.25,212.8L368.79,207.08L364.1,214.4L361.63,202.91L359.25,199.79L356.78,206.48L354.4,202.48L351.93,208.89L349.47,210.9L347.08,216.14L344.62,224.12L342.24,202.18L339.77,197.57L337.47,197.27L335,209.12L332.54,209.44L330.15,214.33L327.69,210.84L325.3,208.98L322.84,198.77L320.37,193.27L317.99,204.46L315.53,212.8L313.14,213.98L310.68,206.73L308.45,184.28L305.99,198.26L303.52,218.29L301.14,211.63L298.67,198.65L296.29,199.15L293.82,197.63L291.36,221.93L288.98,220.45L286.51,216.47L284.13,205.2L281.66,201.21L279.44,200.53L274.51,247.36L272.12,225.92L269.66,212.23L267.27,205.38L262.35,213.77L259.96,215.82L257.5,217.22L255.11,223.86L252.65,228.28L250.42,229.52L247.96,218.53L245.49,218.92L243.11,240.18L240.64,231.58L238.26,216.11L235.79,207.69L233.33,227.98L230.95,231.81L228.48,236.99L226.1,231.02L223.63,204.98L221.33,209.63L218.86,202.31L216.4,211.75L214.01,209.88L211.55,220.98L209.16,232.2L206.7,236.89L204.24,215.95L201.85,206.56L199.39,197.87L197,198.07L194.54,206.88L192.31,209.77L189.85,231.11L187.38,225.93L185,203.15L182.53,196.53L180.15,195.93L177.69,201.06L175.22,213.58L172.84,209.35L170.37,207.86L167.99,191.05L165.52,170.91L163.3,177.61L160.83,177.93L158.37,215.73L153.52,300.01L151.13,290.63L148.67,225.97L146.21,194.71L143.82,171.84L141.36,161.31L138.97,202.59L136.51,278.1L134.28,312.07L131.82,320.62L126.97,236.18L124.5,201.11L122.12,175.11L119.66,192.11L117.19,204.31L114.81,211.12L112.34,192.67L109.96,195.46L107.49,201.91L105.19,192.26L102.72,199.48L100.26,166.62L95.41,172.45L93.03,188.51L90.56,195.53L88.1,199.78L85.71,193.98L83.25,180.91L80.86,179.9L78.4,177.51L73.71,201.64L71.24,186.52L68.86,185.15L66.4,191.31L64.01,179.94L61.55,186.94L59.08,187.73L56.7,164.06L54.23,154.09L51.85,184.89L49.38,213.13L47.16,204.93L42.23,167.28L39.84,171.35L35,198.23L32.53,206.41L27.68,183.01L25.22,178.58L22.83,196.9L20.37,198.07L18.14,183.11" style="vector-effect: none; fill: none; stroke: rgb(0, 154, 250); stroke-opacity: 1; stroke-width: 0px; opacity: 1;"/></g><g class="points"/><g class="text"/></g><g class="trace scatter trace8c9c98" style="stroke-miterlimit: 2; opacity: 1;"><g class="fills"/><g class="errorbars"/><g class="lines"><path class="js-line" d="M18.14,195.16L20.37,209.09L22.83,202.57L25.22,187.2L27.68,193.49L30.07,197.25L32.53,215.14L35,208.59L37.38,191.66L39.84,181.1L42.23,177.77L44.69,191.28L47.16,215.76L49.38,222.86L51.85,190.11L54.23,164.44L56.7,173.99L59.08,192.24L61.55,196.36L64.01,190.82L66.4,196.47L68.86,194.84L71.24,194.34L73.71,206.32L76.17,198.06L78.4,185.93L80.86,183.72L83.25,188.45L85.71,202.37L90.56,204.85L93.03,196.99L95.41,178.02L97.87,179.12L100.26,176.09L102.72,202.82L105.19,200.16L107.49,208.26L109.96,198.97L112.34,198.23L114.81,217.25L117.19,208.39L119.66,198.14L122.12,180.64L124.5,204.44L126.97,241.75L131.82,324.91L134.28,319.41L136.51,283.97L138.97,206.66L141.36,165.88L143.82,177.59L146.21,198.51L148.67,232.42L151.13,298.79L153.52,302.59L155.98,266.9L158.37,220.95L160.83,180.48L163.3,182.87L165.52,175.09L167.99,193.41L170.37,211.75L172.84,213.06L175.22,215.41L177.69,205.04L180.15,199.72L182.53,198.62L185,207.17L187.38,230.58L189.85,234.15L192.31,214.42L194.54,210.6L197,200.94L199.39,202.54L201.85,210.26L204.24,219.31L206.7,240.75L209.16,239.08L211.55,223.15L214.01,213.62L216.4,216.91L218.86,205.24L221.33,214.99L223.63,209.82L226.1,233.71L228.48,241.71L230.95,237.82L233.33,230.6L235.79,211.54L238.26,220.38L240.64,233.81L243.11,244.13L245.49,223.94L247.96,221.05L250.42,233.33L252.65,233.19L255.11,227.1L257.5,221.48L259.96,220L262.35,215.93L264.81,213.62L267.27,209.54L269.66,214.58L272.12,229.55L274.51,252.07L276.97,224.95L279.44,206.23L281.66,205.22L284.13,209.29L286.51,220.71L288.98,224.83L291.36,224.82L293.82,202.03L296.29,203.92L298.67,201.43L301.14,215.82L303.52,222.31L305.99,200.82L308.45,188.91L310.68,210.73L313.14,216.08L315.53,216.54L317.99,209.16L320.37,196.12L322.84,201.49L325.3,212.55L327.69,212.89L330.15,217.61L332.54,214.24L335,212.05L337.47,201.85L339.77,201.12L342.24,204.28L344.62,227.75L347.08,219.79L349.47,213.49L351.93,212.15L354.4,205.8L356.78,207.97L359.25,202.96L361.63,207.34L364.1,218.59L366.56,215.68L368.79,211.51L371.25,216.3L373.63,204.61L376.1,206.82L378.48,212.13L380.95,215.54L383.41,218.59L385.8,217.95L390.65,201.98L393.11,206.64L395.57,219.22L397.8,220.49L400.26,222.81L402.65,203.57L405.11,194.24L407.5,213.86L409.96,224.61L412.43,243.19L414.81,235.93L417.28,192.94L419.66,154.94L422.13,132.79L424.59,155.55L426.82,200.34L429.28,243.25L431.66,254.96L434.13,258.35L436.51,230.87L438.98,230.94L441.44,220.25L443.83,216.32L446.29,218.65L448.68,219.29L451.14,203.66L453.6,217.73L455.91,287.23L458.37,387.4L460.76,383.92L465.61,23.24L468.07,197.17L470.54,264.36L472.92,289.56L477.77,118.23L480.23,85.96L484.92,187.7L487.39,219.77L489.77,221.12L492.24,202.17L494.62,180.52L497.09,182.73L499.55,189.37L501.94,207.63L504.4,220.8L506.79,218.89L509.25,200.26L511.71,191.78L513.94,210.07L516.4,209.37L518.79,216.24L521.25,216.46L526.1,210.03L528.57,200.88L530.95,211.83L533.42,213.86L535.8,235.95L538.26,223.15L540.73,202.76L542.95,200.07L545.42,233.05L547.8,217.52L550.27,213.98L552.65,216.07L555.12,214.32L557.58,224.83L559.97,213.11L562.43,217.74L564.81,210.03L567.28,209.28L569.74,204.72L572.05,209.53L574.51,205.4L576.9,216.64L579.36,218.05L581.75,208.14L586.68,199.66L589.06,210.82L591.52,207.67L593.91,212.11L596.37,209.33L598.84,216.62L603.53,231.25L605.91,215.47L608.38,198.96L610.76,195.06L615.69,212.07L618.07,216.8L620.54,215.31L622.92,211.73" style="vector-effect: none; fill: none; stroke: rgb(0, 154, 250); stroke-opacity: 1; stroke-width: 2px; opacity: 1;"/></g><g class="points"/><g class="text"/></g></g></g></g><path class="xlines-above crisp" d="M53.41813939924176,458.3827646544182H695.485564304462" style="fill: none; stroke-width: 1px; stroke: rgb(0, 0, 0); stroke-opacity: 1;"/><path class="ylines-above crisp" d="M53.91813939924176,46.59640201224843V457.8827646544182" style="fill: none; stroke-width: 1px; stroke: rgb(0, 0, 0); stroke-opacity: 1;"/><g class="overlines-above"/><g class="xaxislayer-above"><path class="xtick ticks crisp" d="M0,457.8827646544182v-5" transform="translate(70.09813939924176,0)" style="stroke: rgb(0, 0, 0); stroke-opacity: 1; stroke-width: 1px;"/><path class="xtick ticks crisp" d="M0,457.8827646544182v-5" transform="translate(244.26813939924176,0)" style="stroke: rgb(0, 0, 0); stroke-opacity: 1; stroke-width: 1px;"/><path class="xtick ticks crisp" d="M0,457.8827646544182v-5" transform="translate(418.51813939924176,0)" style="stroke: rgb(0, 0, 0); stroke-opacity: 1; stroke-width: 1px;"/><path class="xtick ticks crisp" d="M0,457.8827646544182v-5" transform="translate(592.6781393992418,0)" style="stroke: rgb(0, 0, 0); stroke-opacity: 1; stroke-width: 1px;"/><g class="xtick"><text text-anchor="middle" x="0" y="472.0827646544182" transform="translate(70.09813939924176,0)" style="font-family: sans-serif; font-size: 11px; fill: rgb(0, 0, 0); fill-opacity: 1; white-space: pre; opacity: 1;">2005-01-01</text></g><g class="xtick"><text text-anchor="middle" x="0" y="472.0827646544182" style="font-family: sans-serif; font-size: 11px; fill: rgb(0, 0, 0); fill-opacity: 1; white-space: pre; opacity: 1;" transform="translate(244.26813939924176,0)">2011-01-01</text></g><g class="xtick"><text text-anchor="middle" x="0" y="472.0827646544182" style="font-family: sans-serif; font-size: 11px; fill: rgb(0, 0, 0); fill-opacity: 1; white-space: pre; opacity: 1;" transform="translate(418.51813939924176,0)">2017-01-01</text></g><g class="xtick"><text text-anchor="middle" x="0" y="472.0827646544182" style="font-family: sans-serif; font-size: 11px; fill: rgb(0, 0, 0); fill-opacity: 1; white-space: pre; opacity: 1;" transform="translate(592.6781393992418,0)">2023-01-01</text></g></g><g class="yaxislayer-above"><path class="ytick ticks crisp" d="M54.41813939924176,0h5" transform="translate(0,377.7264020122484)" style="stroke: rgb(0, 0, 0); stroke-opacity: 1; stroke-width: 1px;"/><path class="ytick ticks crisp" d="M54.41813939924176,0h5" transform="translate(0,270.3964020122485)" style="stroke: rgb(0, 0, 0); stroke-opacity: 1; stroke-width: 1px;"/><path class="ytick ticks crisp" d="M54.41813939924176,0h5" transform="translate(0,163.06640201224843)" style="stroke: rgb(0, 0, 0); stroke-opacity: 1; stroke-width: 1px;"/><path class="ytick ticks crisp" d="M54.41813939924176,0h5" transform="translate(0,55.726402012248435)" style="stroke: rgb(0, 0, 0); stroke-opacity: 1; stroke-width: 1px;"/><g class="ytick"><text text-anchor="end" x="51.21813939924176" y="3.8499999999999996" transform="translate(0,377.7264020122484)" style="font-family: sans-serif; font-size: 11px; fill: rgb(0, 0, 0); fill-opacity: 1; white-space: pre; opacity: 1;">-2</text></g><g class="ytick"><text text-anchor="end" x="51.21813939924176" y="3.8499999999999996" style="font-family: sans-serif; font-size: 11px; fill: rgb(0, 0, 0); fill-opacity: 1; white-space: pre; opacity: 1;" transform="translate(0,270.3964020122485)">0</text></g><g class="ytick"><text text-anchor="end" x="51.21813939924176" y="3.8499999999999996" style="font-family: sans-serif; font-size: 11px; fill: rgb(0, 0, 0); fill-opacity: 1; white-space: pre; opacity: 1;" transform="translate(0,163.06640201224843)">2</text></g><g class="ytick"><text text-anchor="end" x="51.21813939924176" y="3.8499999999999996" style="font-family: sans-serif; font-size: 11px; fill: rgb(0, 0, 0); fill-opacity: 1; white-space: pre; opacity: 1;" transform="translate(0,55.726402012248435)">4</text></g></g><g class="overaxes-above"/></g></g><g class="polarlayer"/><g class="smithlayer"/><g class="ternarylayer"/><g class="geolayer"/><g class="funnelarealayer"/><g class="pielayer"/><g class="iciclelayer"/><g class="treemaplayer"/><g class="sunburstlayer"/><g class="glimages"/><defs id="topdefs-7ddfc1"><g class="clips"/></defs><g class="layer-above"><g class="imagelayer"/><g class="shapelayer"/></g><g class="infolayer"><g class="g-gtitle"/><g class="g-xtitle"/><g class="g-ytitle"><text class="ytitle" transform="rotate(-90,21.671875,252.23958333333331)" x="21.671875" y="252.23958333333331" text-anchor="middle" style="opacity: 1; font-family: sans-serif; font-size: 15px; fill: rgb(0, 0, 0); fill-opacity: 1; white-space: pre;">percent</text></g><g class="annotation" data-index="0" style="opacity: 1;"><g class="annotation-text-g" transform="rotate(0,374.95185185185187,33.00000000000001)"><g class="cursor-pointer" transform="translate(280,20)"><rect class="bg" x="0.5" y="0.5" width="188" height="25" style="stroke-width: 1px; stroke: rgb(0, 0, 0); stroke-opacity: 0; fill: rgb(0, 0, 0); fill-opacity: 0;"/><text class="annotation-text" text-anchor="middle" x="94.265625" y="20" style="font-family: sans-serif; font-size: 20px; fill: rgb(0, 0, 0); fill-opacity: 1; white-space: pre;">Monthly GDP growth</text></g></g></g></g></svg>